{"title":"Maro Charitra (1978) Telugu Movie - teluguppls","uid":6343613,"size":734650996,"categoryP":"video","categoryS":"movies","magnet":"?xt=urn:btih:fcf51371ce94fe0974c3785a31e4b760fbf54615&amp;dn=Maro+Charitra+%281978%29+Telugu+Movie+-+teluguppls&amp;tr=udp%3A%2F%2Ftracker.openbittorrent.com%3A80&amp;tr=udp%3A%2F%2Fopen.demonii.com%3A1337&amp;tr=udp%3A%2F%2Ftracker.coppersurfer.tk%3A6969&amp;tr=udp%3A%2F%2Fexodus.desync.com%3A6969","seeders":2,"leechers":0,"uploader":"n1212","files":2,"time":1303759499,"description":"MARO CHARITRA (1978) 1CD DVDRIP TELUGU MOVIE - TELUGUPPLS\n\n\nFOR SCREENSHOTS SEE HERE\n\n &lt;a href=&quot;\nhttp://teluguppls.blogspot.com/2011/04/maro-charitra-1979-dvdrip-telugu-movie.html&quot; rel=&quot;nofollow&quot; target=&quot;_NEW&quot;&gt;\nhttp://teluguppls.blogspot.com/2011/04/maro-charitra-1979-dvdrip-telugu-movie.html&lt;/a&gt;\n\n\n\nDESCRIPTION\n\n\nGeneral\n\nFormat                           : AVI\nFormat/Info                      : Audio Video Interleave\nFile size                        : 701 MiB\nDuration                         : 2h 38mn\nOverall bit rate                 : 617 Kbps\n\n\nVideo\n\nFormat                           : MPEG-4 Visual\nFormat settings, Matrix          : Default (H.263)\nCodec ID/Hint                    : DivX 5\nDuration                         : 2h 38mn\nBit rate                         : 479 Kbps\nWidth                            : 512 pixels\nHeight                           : 384 pixels\nDisplay aspect ratio             : 4:3\nFrame rate                       : 25.000 fps\nColor space                      : YUV\nChroma subsampling               : 4:2:0\nBit depth                        : 8 bits\nBits/(Pixel*Frame)               : 0.097\nStream size                      : 544 MiB (78%)\n\n\nAudio\n\nFormat                           : MPEG Audio\nCodec ID/Hint                    : MP3\nDuration                         : 2h 38mn\nBit rate mode                    : Constant\nBit rate                         : 128 Kbps\nChannel(s)                       : 2 channels\nSampling rate                    : 44.1 KHz\nCompression mode                 : Lossy\nStream size                      : 145 MiB (21%)\n\n\n\nPOST A COMMENT....................","torrent":{"xt":"urn:btih:fcf51371ce94fe0974c3785a31e4b760fbf54615","amp;dn":"Maro+Charitra+%281978%29+Telugu+Movie+-+teluguppls","amp;tr":["udp%3A%2F%2Ftracker.openbittorrent.com%3A80","udp%3A%2F%2Fopen.demonii.com%3A1337","udp%3A%2F%2Ftracker.coppersurfer.tk%3A6969","udp%3A%2F%2Fexodus.desync.com%3A6969"],"infoHash":"fcf51371ce94fe0974c3785a31e4b760fbf54615","infoHashBuffer":{"type":"Buffer","data":[252,245,19,113,206,148,254,9,116,195,120,90,49,228,183,96,251,245,70,21]},"announce":[],"urlList":[]}}